Coordinates
version=1
nRows=32
nColumns=12
inDegrees=yes

Units are S.I. units (second, meters, Newtons, ...)
Angles are in degrees

endheader
time	SC_y	SC_z	SC_x	AC_y	AC_z	AC_x	GH_y	GH_z	GH_yy	EL_x	PS_y
       0.0              -11.97         0.1101          31.45          61.56         -15.69          4.811         -11.52         -9.452          172.3          38.49          86.76
   0.04302              -11.97         0.1098          31.45          61.56         -15.69          4.812         -11.52         -9.447          172.3           38.5          86.75
   0.08603              -11.97         0.1096          31.46          61.56         -15.69          4.813         -11.52         -9.442          172.2          38.52          86.74
    0.1291              -11.98         0.1093          31.46          61.56         -15.68          4.815         -11.52         -9.436          172.2          38.53          86.74
    0.1721              -11.98          0.109          31.47          61.56         -15.68          4.816         -11.52          -9.43          172.2          38.55          86.73
    0.2151              -11.98         0.1087          31.48          61.56         -15.68          4.818         -11.52         -9.424          172.1          38.57          86.72
    0.2581              -11.98         0.1083          31.49          61.56         -15.67           4.82         -11.52         -9.417          172.1          38.59          86.71
    0.3011              -11.98          0.108          31.49          61.57         -15.67          4.822         -11.52          -9.41          172.0          38.61           86.7
    0.3441              -11.98         0.1076           31.5          61.57         -15.67          4.824         -11.52         -9.402          171.9          38.63          86.69
    0.3872              -11.98         0.1072          31.51          61.57         -15.66          4.826         -11.53         -9.394          171.9          38.66          86.68
    0.4302              -11.98         0.1067          31.52          61.57         -15.66          4.829         -11.53         -9.385          171.8          38.68          86.67
    0.4732              -11.98         0.1062          31.53          61.57         -15.65          4.831         -11.53         -9.376          171.7          38.71          86.65
    0.5162              -11.98         0.1057          31.54          61.57         -15.65          4.834         -11.53         -9.365          171.7          38.74          86.64
    0.5592              -11.98         0.1052          31.55          61.57         -15.64          4.837         -11.53         -9.354          171.6          38.78          86.62
    0.6022              -11.99         0.1046          31.56          61.57         -15.63           4.84         -11.53         -9.342          171.5          38.81          86.61
    0.6453              -11.99         0.1039          31.58          61.57         -15.63          4.844         -11.53         -9.329          171.4          38.85          86.59
    0.6883              -11.99         0.1032          31.59          61.57         -15.62          4.848         -11.53         -9.315          171.3          38.89          86.57
    0.7313              -11.99         0.1024          31.61          61.58         -15.61          4.852         -11.54           -9.3          171.2          38.94          86.55
    0.7743              -11.99         0.1016          31.63          61.58          -15.6          4.856         -11.54         -9.283          171.0          38.99          86.52
    0.8173               -12.0         0.1006          31.65          61.58         -15.59          4.861         -11.54         -9.264          170.9          39.04           86.5
    0.8603               -12.0         0.0996          31.67          61.58         -15.58          4.867         -11.54         -9.244          170.8           39.1          86.47
    0.9034               -12.0        0.09848          31.69          61.58         -15.57          4.873         -11.54         -9.221          170.6          39.17          86.44
    0.9464               -12.0        0.09723          31.72          61.59         -15.55           4.88         -11.55         -9.197          170.4          39.24           86.4
    0.9894              -12.01        0.09586          31.75          61.59         -15.54          4.887         -11.55         -9.169          170.2          39.32          86.36
     1.032              -12.01        0.09433          31.78          61.59         -15.52          4.895         -11.55         -9.139          170.0          39.41          86.32
     1.075              -12.01        0.09262          31.82          61.59         -15.51          4.905         -11.55         -9.105          169.7          39.51          86.28
     1.118              -12.02        0.09071          31.86           61.6         -15.48          4.915         -11.56         -9.067          169.4          39.63          86.22
     1.161              -12.02        0.08856           31.9           61.6         -15.46          4.927         -11.56         -9.024          169.1          39.75          86.16
     1.204              -12.03        0.08613          31.95          61.61         -15.44           4.94         -11.57         -8.976          168.7           39.9           86.1
     1.247              -12.04        0.08337          32.01          61.61         -15.41          4.955         -11.57         -8.921          168.3          40.06          86.02
     1.291              -12.04        0.08022          32.08          61.62         -15.37          4.971         -11.58         -8.859          167.9          40.24          85.93
     1.334              -12.05        0.07661          32.15          61.62         -15.33          4.991         -11.59         -8.787          167.3          40.46          85.83
